<mxfile host="app.diagrams.net" agent="Mozilla/5.0 (Windows NT 10.0; Win64; x64; rv:137.0) Gecko/20100101 Firefox/137.0" version="26.2.14">
  <diagram name="Página-1" id="3Z7kGl_EhX2X3Km8eWJk">
    <mxGraphModel dx="1426" dy="839" grid="1" gridSize="10" guides="1" tooltips="1" connect="1" arrows="1" fold="1" page="1" pageScale="1" pageWidth="827" pageHeight="1169" math="0" shadow="0">
      <root>
        <mxCell id="0" />
        <mxCell id="1" parent="0" />
        <mxCell id="AAPj5h68DNBrDoyrJ_qK-1" value="Empresa" style="swimlane;fontStyle=1;align=center;verticalAlign=top;childLayout=stackLayout;horizontal=1;startSize=26;horizontalStack=0;resizeParent=1;resizeParentMax=0;resizeLast=0;collapsible=1;marginBottom=0;whiteSpace=wrap;html=1;" parent="1" vertex="1">
          <mxGeometry x="30" y="190" width="190" height="310" as="geometry" />
        </mxCell>
        <mxCell id="AAPj5h68DNBrDoyrJ_qK-2" value="&lt;div&gt;-nombre : String&lt;/div&gt;&lt;div&gt;-cuit: int&lt;/div&gt;&lt;div&gt;&lt;br&gt;&lt;/div&gt;&lt;div&gt;&lt;br&gt;&lt;/div&gt;" style="text;strokeColor=none;fillColor=none;align=left;verticalAlign=top;spacingLeft=4;spacingRight=4;overflow=hidden;rotatable=0;points=[[0,0.5],[1,0.5]];portConstraint=eastwest;whiteSpace=wrap;html=1;" parent="AAPj5h68DNBrDoyrJ_qK-1" vertex="1">
          <mxGeometry y="26" width="190" height="74" as="geometry" />
        </mxCell>
        <mxCell id="AAPj5h68DNBrDoyrJ_qK-3" value="" style="line;strokeWidth=1;fillColor=none;align=left;verticalAlign=middle;spacingTop=-1;spacingLeft=3;spacingRight=3;rotatable=0;labelPosition=right;points=[];portConstraint=eastwest;strokeColor=inherit;" parent="AAPj5h68DNBrDoyrJ_qK-1" vertex="1">
          <mxGeometry y="100" width="190" height="8" as="geometry" />
        </mxCell>
        <mxCell id="AAPj5h68DNBrDoyrJ_qK-4" value="&lt;div&gt;-agregarEmpleado(Empleado): void&lt;/div&gt;&lt;div&gt;+getNombre(): String&lt;/div&gt;&lt;div&gt;+getCuit(): int&lt;/div&gt;&lt;div&gt;+setNombre(String): void&lt;/div&gt;&lt;div&gt;+setCuit(String): void&lt;/div&gt;&lt;div&gt;+montoTotalDeSueldosBrutos(): double&lt;/div&gt;&lt;div&gt;+montoTotalDeSueldosNetos(): double&lt;/div&gt;&lt;div&gt;+montoTotalDeRetenciones(): double&lt;/div&gt;" style="text;strokeColor=none;fillColor=none;align=left;verticalAlign=top;spacingLeft=4;spacingRight=4;overflow=hidden;rotatable=0;points=[[0,0.5],[1,0.5]];portConstraint=eastwest;whiteSpace=wrap;html=1;" parent="AAPj5h68DNBrDoyrJ_qK-1" vertex="1">
          <mxGeometry y="108" width="190" height="202" as="geometry" />
        </mxCell>
        <mxCell id="AAPj5h68DNBrDoyrJ_qK-6" value="empleados" style="endArrow=block;endFill=1;html=1;edgeStyle=orthogonalEdgeStyle;align=left;verticalAlign=top;rounded=0;" parent="1" edge="1">
          <mxGeometry x="-1" relative="1" as="geometry">
            <mxPoint x="220" y="270" as="sourcePoint" />
            <mxPoint x="380" y="270" as="targetPoint" />
          </mxGeometry>
        </mxCell>
        <mxCell id="AAPj5h68DNBrDoyrJ_qK-7" value="1" style="edgeLabel;resizable=0;html=1;align=left;verticalAlign=bottom;" parent="AAPj5h68DNBrDoyrJ_qK-6" connectable="0" vertex="1">
          <mxGeometry x="-1" relative="1" as="geometry" />
        </mxCell>
        <mxCell id="AAPj5h68DNBrDoyrJ_qK-8" value="Empleado" style="swimlane;fontStyle=1;align=center;verticalAlign=top;childLayout=stackLayout;horizontal=1;startSize=26;horizontalStack=0;resizeParent=1;resizeParentMax=0;resizeLast=0;collapsible=1;marginBottom=0;whiteSpace=wrap;html=1;" parent="1" vertex="1">
          <mxGeometry x="380" y="230" width="180" height="360" as="geometry" />
        </mxCell>
        <mxCell id="AAPj5h68DNBrDoyrJ_qK-9" value="&lt;div&gt;-nombre : string&lt;/div&gt;&lt;div&gt;-dirección: string&lt;/div&gt;&lt;div&gt;-estadoCivil: string&lt;/div&gt;&lt;div&gt;-fechaNacimiento: date&lt;/div&gt;&lt;div&gt;-sueldoBasico: double&lt;/div&gt;" style="text;strokeColor=none;fillColor=none;align=left;verticalAlign=top;spacingLeft=4;spacingRight=4;overflow=hidden;rotatable=0;points=[[0,0.5],[1,0.5]];portConstraint=eastwest;whiteSpace=wrap;html=1;" parent="AAPj5h68DNBrDoyrJ_qK-8" vertex="1">
          <mxGeometry y="26" width="180" height="84" as="geometry" />
        </mxCell>
        <mxCell id="AAPj5h68DNBrDoyrJ_qK-10" value="" style="line;strokeWidth=1;fillColor=none;align=left;verticalAlign=middle;spacingTop=-1;spacingLeft=3;spacingRight=3;rotatable=0;labelPosition=right;points=[];portConstraint=eastwest;strokeColor=inherit;" parent="AAPj5h68DNBrDoyrJ_qK-8" vertex="1">
          <mxGeometry y="110" width="180" height="8" as="geometry" />
        </mxCell>
        <mxCell id="AAPj5h68DNBrDoyrJ_qK-11" value="&lt;div&gt;+ calcularEdad(): int&lt;/div&gt;&lt;div&gt;+ calcularSueldoBruto(): double&lt;/div&gt;&lt;div&gt;+ calcularRetenciones(): double&lt;/div&gt;&lt;div&gt;+ calcularSueldoNeto(): double&lt;/div&gt;&lt;div&gt;&lt;br&gt;&lt;/div&gt;&lt;div&gt;+getNombre(): string&lt;/div&gt;&lt;div&gt;+setNombre(String): void&lt;/div&gt;&lt;div&gt;+getDireccion(): string&lt;/div&gt;&lt;div&gt;+setDireccion(string): void&lt;/div&gt;&lt;div&gt;+getEstadoCivil(): string&lt;/div&gt;&lt;div&gt;+setEstadoCivil(string): void&lt;/div&gt;&lt;div&gt;+getFechaNacimiento(): date&lt;/div&gt;&lt;div&gt;+setFechaNacimiento(date): void&lt;/div&gt;&lt;div&gt;+getSueldoBasico(): double&lt;/div&gt;&lt;div&gt;+setSueldoBasico(double): void&lt;/div&gt;" style="text;strokeColor=none;fillColor=none;align=left;verticalAlign=top;spacingLeft=4;spacingRight=4;overflow=hidden;rotatable=0;points=[[0,0.5],[1,0.5]];portConstraint=eastwest;whiteSpace=wrap;html=1;" parent="AAPj5h68DNBrDoyrJ_qK-8" vertex="1">
          <mxGeometry y="118" width="180" height="242" as="geometry" />
        </mxCell>
        <mxCell id="AAPj5h68DNBrDoyrJ_qK-12" value="*" style="text;html=1;align=center;verticalAlign=middle;resizable=0;points=[];autosize=1;strokeColor=none;fillColor=none;" parent="1" vertex="1">
          <mxGeometry x="345" y="250" width="30" height="30" as="geometry" />
        </mxCell>
        <mxCell id="AAPj5h68DNBrDoyrJ_qK-17" value="EmpleadoPlantaPermanente" style="swimlane;fontStyle=1;align=center;verticalAlign=top;childLayout=stackLayout;horizontal=1;startSize=26;horizontalStack=0;resizeParent=1;resizeParentMax=0;resizeLast=0;collapsible=1;marginBottom=0;whiteSpace=wrap;html=1;" parent="1" vertex="1">
          <mxGeometry x="70" y="720" width="220" height="390" as="geometry" />
        </mxCell>
        <mxCell id="AAPj5h68DNBrDoyrJ_qK-18" value="&lt;div&gt;- cantidadDeHijos: int&lt;/div&gt;&lt;div&gt;&lt;br&gt;&lt;/div&gt;&lt;div&gt;- salarioFamiliar: double&lt;/div&gt;&lt;div&gt;&lt;div&gt;- añosDeAntiguedad: int&lt;/div&gt;&lt;div&gt;- asignaciónPorHijo: double&lt;/div&gt;&lt;div&gt;&amp;nbsp;-asignaciónPorCónyuge: double&lt;/div&gt;&lt;div&gt;- tieneConyugue: bool&lt;/div&gt;&lt;div&gt;-retencionObraSocial: double&lt;/div&gt;&lt;div&gt;- aportesJubilatorios: double&lt;/div&gt;&lt;div&gt;&lt;br&gt;&lt;/div&gt;&lt;br&gt;&lt;/div&gt;" style="text;strokeColor=none;fillColor=none;align=left;verticalAlign=top;spacingLeft=4;spacingRight=4;overflow=hidden;rotatable=0;points=[[0,0.5],[1,0.5]];portConstraint=eastwest;whiteSpace=wrap;html=1;" parent="AAPj5h68DNBrDoyrJ_qK-17" vertex="1">
          <mxGeometry y="26" width="220" height="164" as="geometry" />
        </mxCell>
        <mxCell id="AAPj5h68DNBrDoyrJ_qK-19" value="" style="line;strokeWidth=1;fillColor=none;align=left;verticalAlign=middle;spacingTop=-1;spacingLeft=3;spacingRight=3;rotatable=0;labelPosition=right;points=[];portConstraint=eastwest;strokeColor=inherit;" parent="AAPj5h68DNBrDoyrJ_qK-17" vertex="1">
          <mxGeometry y="190" width="220" height="8" as="geometry" />
        </mxCell>
        <mxCell id="AAPj5h68DNBrDoyrJ_qK-20" value="&lt;div&gt;+ tieneConyugue(): bool&lt;/div&gt;&lt;div&gt;&lt;div&gt;+calcularRetenciones(): double&lt;/div&gt;&lt;div&gt;+tieneAntiguedad(): bool&lt;/div&gt;&lt;div&gt;+ calcularSueldoBruto(): double&lt;/div&gt;&lt;/div&gt;&lt;div&gt;&lt;br&gt;&lt;/div&gt;&lt;div&gt;+getsalarioFamiliar(): double&lt;/div&gt;&lt;div&gt;+setSalarioFamiliar(double): void&lt;/div&gt;&lt;div&gt;&lt;br&gt;&lt;/div&gt;" style="text;strokeColor=none;fillColor=none;align=left;verticalAlign=top;spacingLeft=4;spacingRight=4;overflow=hidden;rotatable=0;points=[[0,0.5],[1,0.5]];portConstraint=eastwest;whiteSpace=wrap;html=1;" parent="AAPj5h68DNBrDoyrJ_qK-17" vertex="1">
          <mxGeometry y="198" width="220" height="192" as="geometry" />
        </mxCell>
        <mxCell id="AAPj5h68DNBrDoyrJ_qK-21" value="EmpleadoPlantaTemporaria" style="swimlane;fontStyle=1;align=center;verticalAlign=top;childLayout=stackLayout;horizontal=1;startSize=26;horizontalStack=0;resizeParent=1;resizeParentMax=0;resizeLast=0;collapsible=1;marginBottom=0;whiteSpace=wrap;html=1;" parent="1" vertex="1">
          <mxGeometry x="600" y="740" width="220" height="250" as="geometry" />
        </mxCell>
        <mxCell id="AAPj5h68DNBrDoyrJ_qK-22" value="&lt;div&gt;- fechaFinDesignación: date&lt;/div&gt;&lt;div&gt;- cantidadHorasExtra: int&lt;/div&gt;&lt;div&gt;&lt;div&gt;-retencionObraSocial: double&lt;/div&gt;&lt;div&gt;-aportesJubilatorios: double&lt;/div&gt;&lt;br&gt;&lt;/div&gt;&lt;div&gt;&lt;br&gt;&lt;/div&gt;" style="text;strokeColor=none;fillColor=none;align=left;verticalAlign=top;spacingLeft=4;spacingRight=4;overflow=hidden;rotatable=0;points=[[0,0.5],[1,0.5]];portConstraint=eastwest;whiteSpace=wrap;html=1;" parent="AAPj5h68DNBrDoyrJ_qK-21" vertex="1">
          <mxGeometry y="26" width="220" height="84" as="geometry" />
        </mxCell>
        <mxCell id="AAPj5h68DNBrDoyrJ_qK-23" value="" style="line;strokeWidth=1;fillColor=none;align=left;verticalAlign=middle;spacingTop=-1;spacingLeft=3;spacingRight=3;rotatable=0;labelPosition=right;points=[];portConstraint=eastwest;strokeColor=inherit;" parent="AAPj5h68DNBrDoyrJ_qK-21" vertex="1">
          <mxGeometry y="110" width="220" height="8" as="geometry" />
        </mxCell>
        <mxCell id="AAPj5h68DNBrDoyrJ_qK-24" value="&lt;div&gt;+ calcularSueldoBruto(): double&lt;/div&gt;&lt;div&gt;&lt;div&gt;+ tieneMasDe50DeAportes(): bool&lt;br&gt;&lt;div&gt;+calcularRetenciones():double&lt;/div&gt;&lt;div&gt;&lt;br&gt;&lt;/div&gt;&lt;div&gt;&lt;div&gt;+getFechaFinDesignación(): date&lt;/div&gt;&lt;div&gt;+setFechaFinDesignación(date): void&lt;/div&gt;&lt;div&gt;+setCantidadHorasExtra(int): void&lt;/div&gt;&lt;div&gt;+getCantidadHorasExtra(): int&lt;/div&gt;&lt;br&gt;&lt;/div&gt;&lt;br&gt;&lt;/div&gt;&lt;br&gt;&lt;/div&gt;" style="text;strokeColor=none;fillColor=none;align=left;verticalAlign=top;spacingLeft=4;spacingRight=4;overflow=hidden;rotatable=0;points=[[0,0.5],[1,0.5]];portConstraint=eastwest;whiteSpace=wrap;html=1;" parent="AAPj5h68DNBrDoyrJ_qK-21" vertex="1">
          <mxGeometry y="118" width="220" height="132" as="geometry" />
        </mxCell>
        <mxCell id="AAPj5h68DNBrDoyrJ_qK-25" value="Extends" style="endArrow=block;endSize=16;endFill=0;html=1;rounded=0;entryX=1.006;entryY=0.988;entryDx=0;entryDy=0;entryPerimeter=0;exitX=0.4;exitY=0;exitDx=0;exitDy=0;exitPerimeter=0;" parent="1" source="AAPj5h68DNBrDoyrJ_qK-21" target="AAPj5h68DNBrDoyrJ_qK-11" edge="1">
          <mxGeometry width="160" relative="1" as="geometry">
            <mxPoint x="590" y="500" as="sourcePoint" />
            <mxPoint x="750" y="500" as="targetPoint" />
          </mxGeometry>
        </mxCell>
        <mxCell id="AAPj5h68DNBrDoyrJ_qK-26" value="Extends" style="endArrow=block;endSize=16;endFill=0;html=1;rounded=0;exitX=1;exitY=0;exitDx=0;exitDy=0;entryX=0;entryY=1;entryDx=0;entryDy=0;" parent="1" source="AAPj5h68DNBrDoyrJ_qK-17" target="AAPj5h68DNBrDoyrJ_qK-8" edge="1">
          <mxGeometry width="160" relative="1" as="geometry">
            <mxPoint x="520" y="530" as="sourcePoint" />
            <mxPoint x="380" y="470" as="targetPoint" />
          </mxGeometry>
        </mxCell>
        <mxCell id="AAPj5h68DNBrDoyrJ_qK-29" value="1" style="text;html=1;align=center;verticalAlign=middle;resizable=0;points=[];autosize=1;strokeColor=none;fillColor=none;" parent="1" vertex="1">
          <mxGeometry x="550" y="280" width="30" height="30" as="geometry" />
        </mxCell>
        <mxCell id="AAPj5h68DNBrDoyrJ_qK-30" value="Recibo De Haberes" style="swimlane;fontStyle=1;align=center;verticalAlign=top;childLayout=stackLayout;horizontal=1;startSize=26;horizontalStack=0;resizeParent=1;resizeParentMax=0;resizeLast=0;collapsible=1;marginBottom=0;whiteSpace=wrap;html=1;" parent="1" vertex="1">
          <mxGeometry x="700" y="246" width="160" height="280" as="geometry" />
        </mxCell>
        <mxCell id="AAPj5h68DNBrDoyrJ_qK-31" value="&lt;div&gt;- nombreEmpleado: string&lt;/div&gt;&lt;div&gt;- direccionEmpleado: string&lt;/div&gt;&lt;div&gt;-fechaEmision: date&lt;/div&gt;&lt;div&gt;-sueldoBruto: double&lt;/div&gt;&lt;div&gt;-sueldoNeto: double&lt;/div&gt;&lt;div&gt;&lt;br&gt;&lt;/div&gt;" style="text;strokeColor=none;fillColor=none;align=left;verticalAlign=top;spacingLeft=4;spacingRight=4;overflow=hidden;rotatable=0;points=[[0,0.5],[1,0.5]];portConstraint=eastwest;whiteSpace=wrap;html=1;" parent="AAPj5h68DNBrDoyrJ_qK-30" vertex="1">
          <mxGeometry y="26" width="160" height="94" as="geometry" />
        </mxCell>
        <mxCell id="AAPj5h68DNBrDoyrJ_qK-32" value="" style="line;strokeWidth=1;fillColor=none;align=left;verticalAlign=middle;spacingTop=-1;spacingLeft=3;spacingRight=3;rotatable=0;labelPosition=right;points=[];portConstraint=eastwest;strokeColor=inherit;" parent="AAPj5h68DNBrDoyrJ_qK-30" vertex="1">
          <mxGeometry y="120" width="160" height="20" as="geometry" />
        </mxCell>
        <mxCell id="upAT70pEMT595tv73VZs-3" value="&lt;div&gt;+getNombreEmpleado(): string&lt;/div&gt;&lt;div&gt;+getDireccionEmpleado(): string&lt;/div&gt;&lt;div&gt;-getFechaEmision(): date&lt;/div&gt;&lt;div&gt;-getSueldoBruto(): double&lt;/div&gt;&lt;div&gt;-getSueldoNeto(): double&lt;/div&gt;&lt;div&gt;&lt;br&gt;&lt;/div&gt;" style="text;strokeColor=none;fillColor=none;align=left;verticalAlign=top;spacingLeft=4;spacingRight=4;overflow=hidden;rotatable=0;points=[[0,0.5],[1,0.5]];portConstraint=eastwest;whiteSpace=wrap;html=1;" vertex="1" parent="AAPj5h68DNBrDoyrJ_qK-30">
          <mxGeometry y="140" width="160" height="140" as="geometry" />
        </mxCell>
        <mxCell id="yK1wMJgvfRNPAuIdsOhz-2" value="reciboDeHaberes" style="html=1;verticalAlign=bottom;endArrow=block;curved=0;rounded=0;entryX=-0.009;entryY=0.415;entryDx=0;entryDy=0;entryPerimeter=0;exitX=1.006;exitY=0.667;exitDx=0;exitDy=0;exitPerimeter=0;" parent="1" source="AAPj5h68DNBrDoyrJ_qK-9" target="AAPj5h68DNBrDoyrJ_qK-31" edge="1">
          <mxGeometry width="80" relative="1" as="geometry">
            <mxPoint x="570" y="310" as="sourcePoint" />
            <mxPoint x="620" y="310" as="targetPoint" />
          </mxGeometry>
        </mxCell>
        <mxCell id="yK1wMJgvfRNPAuIdsOhz-3" value="1" style="text;html=1;align=center;verticalAlign=middle;resizable=0;points=[];autosize=1;strokeColor=none;fillColor=none;" parent="1" vertex="1">
          <mxGeometry x="670" y="280" width="30" height="30" as="geometry" />
        </mxCell>
        <mxCell id="yK1wMJgvfRNPAuIdsOhz-6" value="EmpleadoContratado" style="swimlane;fontStyle=1;align=center;verticalAlign=top;childLayout=stackLayout;horizontal=1;startSize=26;horizontalStack=0;resizeParent=1;resizeParentMax=0;resizeLast=0;collapsible=1;marginBottom=0;whiteSpace=wrap;html=1;" parent="1" vertex="1">
          <mxGeometry x="350" y="730" width="200" height="280" as="geometry" />
        </mxCell>
        <mxCell id="yK1wMJgvfRNPAuIdsOhz-7" value="&lt;div&gt;-numeroContrato: int&lt;/div&gt;&lt;div&gt;-medioDePago: string&lt;/div&gt;" style="text;strokeColor=none;fillColor=none;align=left;verticalAlign=top;spacingLeft=4;spacingRight=4;overflow=hidden;rotatable=0;points=[[0,0.5],[1,0.5]];portConstraint=eastwest;whiteSpace=wrap;html=1;" parent="yK1wMJgvfRNPAuIdsOhz-6" vertex="1">
          <mxGeometry y="26" width="200" height="44" as="geometry" />
        </mxCell>
        <mxCell id="yK1wMJgvfRNPAuIdsOhz-8" value="" style="line;strokeWidth=1;fillColor=none;align=left;verticalAlign=middle;spacingTop=-1;spacingLeft=3;spacingRight=3;rotatable=0;labelPosition=right;points=[];portConstraint=eastwest;strokeColor=inherit;" parent="yK1wMJgvfRNPAuIdsOhz-6" vertex="1">
          <mxGeometry y="70" width="200" height="8" as="geometry" />
        </mxCell>
        <mxCell id="yK1wMJgvfRNPAuIdsOhz-9" value="&lt;div&gt;+calcularSueldoBruto(): double&lt;/div&gt;&lt;div&gt;+calcularSueldoNeto(): double&lt;/div&gt;&lt;div&gt;&lt;br&gt;&lt;/div&gt;&lt;div&gt;+getNumeroContrato(): int&lt;/div&gt;&lt;div&gt;+setNumeroContrato(): int&lt;/div&gt;&lt;div&gt;+getMedioDePago(): string&lt;/div&gt;&lt;div&gt;+setMedioDePago(string): void&lt;/div&gt;" style="text;strokeColor=none;fillColor=none;align=left;verticalAlign=top;spacingLeft=4;spacingRight=4;overflow=hidden;rotatable=0;points=[[0,0.5],[1,0.5]];portConstraint=eastwest;whiteSpace=wrap;html=1;" parent="yK1wMJgvfRNPAuIdsOhz-6" vertex="1">
          <mxGeometry y="78" width="200" height="202" as="geometry" />
        </mxCell>
        <mxCell id="yK1wMJgvfRNPAuIdsOhz-10" value="Extends" style="endArrow=block;endSize=16;endFill=0;html=1;rounded=0;entryX=0.438;entryY=1;entryDx=0;entryDy=0;entryPerimeter=0;" parent="1" source="yK1wMJgvfRNPAuIdsOhz-6" target="AAPj5h68DNBrDoyrJ_qK-11" edge="1">
          <mxGeometry width="160" relative="1" as="geometry">
            <mxPoint x="700" y="561" as="sourcePoint" />
            <mxPoint x="421" y="490" as="targetPoint" />
          </mxGeometry>
        </mxCell>
      </root>
    </mxGraphModel>
  </diagram>
</mxfile>
